<svg xmlns="http://www.w3.org/2000/svg" xmlns:xlink="http://www.w3.org/1999/xlink" version="1.1" data-diagram-type="SEQUENCE" style="width:960px;height:1257px;background:#FFFFFF;" width="960px" height="1257px" viewBox="0 0 960 1257" zoomAndPan="magnify" preserveAspectRatio="none" contentStyleType="text/css"><?plantuml 1.2026.7beta8?><defs/><g font-family="sans-serif" lengthAdjust="spacing"><g class="title" data-source-line="9"><text x="161.719" y="35.421" fill="#000" font-size="22" textLength="635.519" font-weight="700" font-family="Helvetica">VoidRP — Логин, синхронизация и вход на сервер</text></g><rect x="192.857" y="530.633" width="477.341" height="127.531" fill="#FFF" style="stroke:#FFF;stroke-width:1;"/><g><title>.....</title><rect x="31.368" y="133.906" width="8" height="1035.516" fill="#000" fill-opacity="0"/><line x1="34.868" y1="133.906" x2="34.868" y2="1169.422" style="stroke:#8957E5;stroke-width:1;stroke-dasharray:5,5;"/></g><g><title>.......</title><rect x="205.357" y="133.906" width="8" height="1035.516" fill="#000" fill-opacity="0"/><line x1="208.857" y1="133.906" x2="208.857" y2="1169.422" style="stroke:#8957E5;stroke-width:1;stroke-dasharray:5,5;"/></g><g><title>Backend</title><rect x="527.225" y="133.906" width="8" height="1035.516" fill="#000" fill-opacity="0"/><line x1="530.725" y1="133.906" x2="530.725" y2="1169.422" style="stroke:#8957E5;stroke-width:1;stroke-dasharray:5,5;"/></g><g><title>CDN</title><rect x="650.698" y="133.906" width="8" height="1035.516" fill="#000" fill-opacity="0"/><line x1="654.198" y1="133.906" x2="654.198" y2="1169.422" style="stroke:#8957E5;stroke-width:1;stroke-dasharray:5,5;"/></g><g><title>.......</title><rect x="900.86" y="133.906" width="8" height="1035.516" fill="#000" fill-opacity="0"/><line x1="904.36" y1="133.906" x2="904.36" y2="1169.422" style="stroke:#8957E5;stroke-width:1;stroke-dasharray:5,5;"/></g><text x="10" y="130.604" fill="#000" font-size="14" textLength="43.736" font-family="Helvetica">Игрок</text><ellipse cx="34.868" cy="65.609" rx="8" ry="8" fill="#FFF" style="stroke:#000;stroke-width:1;"/><path d="M34.868,73.609 L34.868,100.609 M21.868,81.609 L47.868,81.609 M34.868,100.609 L21.868,115.609 M34.868,100.609 L47.868,115.609" style="stroke:#000;stroke-width:1;" fill="none"/><rect x="166.102" y="85.313" width="85.51" height="42.594" fill="#F6F8FA" style="stroke:#8957E5;stroke-width:1;" rx="2.5" ry="2.5"/><text x="177.699" y="103.308" fill="#000" font-size="14" textLength="62.316" font-family="Helvetica">Лаунчер</text><text x="171.102" y="119.604" fill="#000" font-size="14" textLength="75.51" font-family="Helvetica">(CoreHost)</text><rect x="495.544" y="85.313" width="70.361" height="42.594" fill="#F6F8FA" style="stroke:#8957E5;stroke-width:1;" rx="2.5" ry="2.5"/><text x="500.544" y="103.308" fill="#000" font-size="14" textLength="60.361" font-family="Helvetica">Backend</text><text x="504.943" y="119.604" fill="#000" font-size="14" textLength="51.563" font-family="Helvetica">FastAPI</text><rect x="595.905" y="85.313" width="116.586" height="42.594" fill="#F6F8FA" style="stroke:#8957E5;stroke-width:1;" rx="2.5" ry="2.5"/><text x="638.684" y="103.308" fill="#000" font-size="14" textLength="31.028" font-family="Helvetica">CDN</text><text x="600.905" y="119.604" fill="#000" font-size="14" textLength="106.586" font-family="Helvetica">pack/manifests</text><rect x="868.762" y="85.313" width="71.195" height="42.594" fill="#F6F8FA" style="stroke:#8957E5;stroke-width:1;" rx="2.5" ry="2.5"/><text x="873.762" y="103.308" fill="#000" font-size="14" textLength="61.195" font-family="Helvetica">Игровой</text><text x="878.886" y="119.604" fill="#000" font-size="14" textLength="50.948" font-family="Helvetica">сервер</text><text x="10" y="1182.417" fill="#000" font-size="14" textLength="43.736" font-family="Helvetica">Игрок</text><ellipse cx="34.868" cy="1194.719" rx="8" ry="8" fill="#FFF" style="stroke:#000;stroke-width:1;"/><path d="M34.868,1202.719 L34.868,1229.719 M21.868,1210.719 L47.868,1210.719 M34.868,1229.719 L21.868,1244.719 M34.868,1229.719 L47.868,1244.719" style="stroke:#000;stroke-width:1;" fill="none"/><rect x="166.102" y="1174.422" width="85.51" height="42.594" fill="#F6F8FA" style="stroke:#8957E5;stroke-width:1;" rx="2.5" ry="2.5"/><text x="177.699" y="1192.417" fill="#000" font-size="14" textLength="62.316" font-family="Helvetica">Лаунчер</text><text x="171.102" y="1208.714" fill="#000" font-size="14" textLength="75.51" font-family="Helvetica">(CoreHost)</text><rect x="495.544" y="1174.422" width="70.361" height="42.594" fill="#F6F8FA" style="stroke:#8957E5;stroke-width:1;" rx="2.5" ry="2.5"/><text x="500.544" y="1192.417" fill="#000" font-size="14" textLength="60.361" font-family="Helvetica">Backend</text><text x="504.943" y="1208.714" fill="#000" font-size="14" textLength="51.563" font-family="Helvetica">FastAPI</text><rect x="595.905" y="1174.422" width="116.586" height="42.594" fill="#F6F8FA" style="stroke:#8957E5;stroke-width:1;" rx="2.5" ry="2.5"/><text x="638.684" y="1192.417" fill="#000" font-size="14" textLength="31.028" font-family="Helvetica">CDN</text><text x="600.905" y="1208.714" fill="#000" font-size="14" textLength="106.586" font-family="Helvetica">pack/manifests</text><rect x="868.762" y="1174.422" width="71.195" height="42.594" fill="#F6F8FA" style="stroke:#8957E5;stroke-width:1;" rx="2.5" ry="2.5"/><text x="873.762" y="1192.417" fill="#000" font-size="14" textLength="61.195" font-family="Helvetica">Игровой</text><text x="878.886" y="1208.714" fill="#000" font-size="14" textLength="50.948" font-family="Helvetica">сервер</text><rect x="10" y="162.473" width="939.958" height="3" fill="#FFF" style="stroke:#FFF;stroke-width:1;"/><line x1="10" y1="162.473" x2="949.958" y2="162.473" style="stroke:#000;stroke-width:0.5;"/><line x1="10" y1="165.473" x2="949.958" y2="165.473" style="stroke:#000;stroke-width:0.5;"/><rect x="422.423" y="151.906" width="115.112" height="23.133" fill="#FFF" style="stroke:#000;stroke-width:1;"/><text x="428.423" y="167.973" fill="#000" font-size="13" textLength="96.586" font-weight="700" font-family="Helvetica">Авторизация</text><polygon points="196.857,202.172,206.857,206.172,196.857,210.172,200.857,206.172" fill="#6E40C9" style="stroke:#6E40C9;stroke-width:1;stroke-linejoin:miter;stroke-miterlimit:10;"/><line x1="34.868" y1="206.172" x2="202.857" y2="206.172" style="stroke:#6E40C9;stroke-width:1;"/><text x="41.868" y="201.106" fill="#000" font-size="13" textLength="101.328" font-family="Helvetica">логин / пароль</text><polygon points="518.725,231.305,528.725,235.305,518.725,239.305,522.725,235.305" fill="#6E40C9" style="stroke:#6E40C9;stroke-width:1;stroke-linejoin:miter;stroke-miterlimit:10;"/><line x1="208.857" y1="235.305" x2="524.725" y2="235.305" style="stroke:#6E40C9;stroke-width:1;"/><text x="215.857" y="230.239" fill="#000" font-size="13" textLength="108.367" font-family="Helvetica">POST /auth/login</text><polygon points="219.857,260.438,209.857,264.438,219.857,268.438,215.857,264.438" fill="#6E40C9" style="stroke:#6E40C9;stroke-width:1;stroke-linejoin:miter;stroke-miterlimit:10;"/><line x1="213.857" y1="264.438" x2="529.725" y2="264.438" style="stroke:#6E40C9;stroke-width:1;stroke-dasharray:2,2;"/><text x="225.857" y="259.372" fill="#000" font-size="13" textLength="137.998" font-family="Helvetica">JWT access + refresh</text><path d="M213.857,277.438 L213.857,317.438 L347.857,317.438 L347.857,287.438 L337.857,277.438 L213.857,277.438" style="stroke:#000;stroke-width:1;" fill="#FFF"/><path d="M337.857,277.438 L337.857,287.438 L347.857,287.438 L337.857,277.438" style="stroke:#000;stroke-width:1;" fill="#FFF"/><text x="219.857" y="294.504" fill="#000" font-size="13" textLength="113.807" font-family="Helvetica">refresh хранится</text><text x="219.857" y="309.637" fill="#000" font-size="13" textLength="91.292" font-family="Helvetica">и ротируется</text><rect x="10" y="343.27" width="939.958" height="3" fill="#FFF" style="stroke:#FFF;stroke-width:1;"/><line x1="10" y1="343.27" x2="949.958" y2="343.27" style="stroke:#000;stroke-width:0.5;"/><line x1="10" y1="346.27" x2="949.958" y2="346.27" style="stroke:#000;stroke-width:0.5;"/><rect x="327.506" y="332.703" width="304.945" height="23.133" fill="#FFF" style="stroke:#000;stroke-width:1;"/><text x="333.506" y="348.77" fill="#000" font-size="13" textLength="286.419" font-weight="700" font-family="Helvetica">Выбор сервера и синхронизация пака</text><polygon points="196.857,382.969,206.857,386.969,196.857,390.969,200.857,386.969" fill="#6E40C9" style="stroke:#6E40C9;stroke-width:1;stroke-linejoin:miter;stroke-miterlimit:10;"/><line x1="34.868" y1="386.969" x2="202.857" y2="386.969" style="stroke:#6E40C9;stroke-width:1;"/><text x="41.868" y="381.903" fill="#000" font-size="13" textLength="149.989" font-family="Helvetica">выбрать сервер (slug)</text><polygon points="518.725,412.102,528.725,416.102,518.725,420.102,522.725,416.102" fill="#6E40C9" style="stroke:#6E40C9;stroke-width:1;stroke-linejoin:miter;stroke-miterlimit:10;"/><line x1="208.857" y1="416.102" x2="524.725" y2="416.102" style="stroke:#6E40C9;stroke-width:1;"/><text x="215.857" y="411.036" fill="#000" font-size="13" textLength="130.463" font-family="Helvetica">GET /servers/{slug}</text><polygon points="219.857,456.367,209.857,460.367,219.857,464.367,215.857,460.367" fill="#6E40C9" style="stroke:#6E40C9;stroke-width:1;stroke-linejoin:miter;stroke-miterlimit:10;"/><line x1="213.857" y1="460.367" x2="529.725" y2="460.367" style="stroke:#6E40C9;stroke-width:1;stroke-dasharray:2,2;"/><text x="225.857" y="440.168" fill="#000" font-size="13" textLength="155.994" font-family="Helvetica">host, port, manifest_url,</text><text x="225.857" y="455.301" fill="#000" font-size="13" textLength="180.584" font-family="Helvetica">profile (NeoForge), features</text><polygon points="642.198,485.5,652.198,489.5,642.198,493.5,646.198,489.5" fill="#6E40C9" style="stroke:#6E40C9;stroke-width:1;stroke-linejoin:miter;stroke-miterlimit:10;"/><line x1="208.857" y1="489.5" x2="648.198" y2="489.5" style="stroke:#6E40C9;stroke-width:1;"/><text x="215.857" y="484.434" fill="#000" font-size="13" textLength="117.997" font-family="Helvetica">GET manifest.json</text><polygon points="219.857,514.633,209.857,518.633,219.857,522.633,215.857,518.633" fill="#6E40C9" style="stroke:#6E40C9;stroke-width:1;stroke-linejoin:miter;stroke-miterlimit:10;"/><line x1="213.857" y1="518.633" x2="653.198" y2="518.633" style="stroke:#6E40C9;stroke-width:1;stroke-dasharray:2,2;"/><text x="225.857" y="513.567" fill="#000" font-size="13" textLength="284.07" font-family="Helvetica">список файлов (path, size, SHA-256, flags)</text><path d="M192.857,530.633 L269.481,530.633 L269.481,537.766 L259.481,547.766 L192.857,547.766 L192.857,530.633" style="stroke:#000;stroke-width:1;" fill="#FFF"/><rect x="192.857" y="530.633" width="477.341" height="127.531" fill="none" style="stroke:#000;stroke-width:1;"/><text x="207.857" y="543.7" fill="#000" font-size="13" textLength="31.624" font-weight="700" font-family="Helvetica">loop</text><text x="284.481" y="542.843" fill="#000" font-size="11" textLength="236.151" font-weight="700" font-family="Helvetica">[до 8 файлов параллельно (HTTP/2)]</text><line x1="208.857" y1="578.898" x2="250.857" y2="578.898" style="stroke:#6E40C9;stroke-width:1;"/><line x1="250.857" y1="578.898" x2="250.857" y2="591.898" style="stroke:#6E40C9;stroke-width:1;"/><line x1="209.857" y1="591.898" x2="250.857" y2="591.898" style="stroke:#6E40C9;stroke-width:1;"/><polygon points="219.857,587.898,209.857,591.898,219.857,595.898,215.857,591.898" fill="#6E40C9" style="stroke:#6E40C9;stroke-width:1;stroke-linejoin:miter;stroke-miterlimit:10;"/><text x="215.857" y="573.833" fill="#000" font-size="13" textLength="307.868" font-family="Helvetica">NeedsDownload? (hash-cache / size / SHA-256)</text><polygon points="642.198,617.031,652.198,621.031,642.198,625.031,646.198,621.031" fill="#6E40C9" style="stroke:#6E40C9;stroke-width:1;stroke-linejoin:miter;stroke-miterlimit:10;"/><line x1="208.857" y1="621.031" x2="648.198" y2="621.031" style="stroke:#6E40C9;stroke-width:1;"/><text x="215.857" y="615.965" fill="#000" font-size="13" textLength="300.6" font-family="Helvetica">GET файл (если нет / изменился / managed)</text><polygon points="219.857,646.164,209.857,650.164,219.857,654.164,215.857,650.164" fill="#6E40C9" style="stroke:#6E40C9;stroke-width:1;stroke-linejoin:miter;stroke-miterlimit:10;"/><line x1="213.857" y1="650.164" x2="653.198" y2="650.164" style="stroke:#6E40C9;stroke-width:1;stroke-dasharray:2,2;"/><text x="225.857" y="645.098" fill="#000" font-size="13" textLength="186.418" font-family="Helvetica">байты → проверка SHA-256</text><path d="M213.857,677.164 L213.857,732.164 L427.857,732.164 L427.857,687.164 L417.857,677.164 L213.857,677.164" style="stroke:#000;stroke-width:1;" fill="#FFF"/><path d="M417.857,677.164 L417.857,687.164 L427.857,687.164 L417.857,677.164" style="stroke:#000;stroke-width:1;" fill="#FFF"/><text x="219.857" y="694.231" fill="#000" font-size="13" textLength="168.46" font-family="Helvetica">alwaysOverwrite — форс,</text><text x="219.857" y="709.364" fill="#000" font-size="13" textLength="178.68" font-family="Helvetica">managed — синк по хешу,</text><text x="219.857" y="724.497" fill="#000" font-size="13" textLength="193.87" font-family="Helvetica">config/ игрока — не трогаем</text><rect x="10" y="758.129" width="939.958" height="3" fill="#FFF" style="stroke:#FFF;stroke-width:1;"/><line x1="10" y1="758.129" x2="949.958" y2="758.129" style="stroke:#000;stroke-width:0.5;"/><line x1="10" y1="761.129" x2="949.958" y2="761.129" style="stroke:#000;stroke-width:0.5;"/><rect x="397.14" y="747.563" width="165.677" height="23.133" fill="#FFF" style="stroke:#000;stroke-width:1;"/><text x="403.14" y="763.629" fill="#000" font-size="13" textLength="147.151" font-weight="700" font-family="Helvetica">Play-ticket и запуск</text><polygon points="196.857,797.828,206.857,801.828,196.857,805.828,200.857,801.828" fill="#6E40C9" style="stroke:#6E40C9;stroke-width:1;stroke-linejoin:miter;stroke-miterlimit:10;"/><line x1="34.868" y1="801.828" x2="202.857" y2="801.828" style="stroke:#6E40C9;stroke-width:1;"/><text x="41.868" y="796.762" fill="#000" font-size="13" textLength="63.915" font-family="Helvetica">«Играть»</text><polygon points="518.725,826.961,528.725,830.961,518.725,834.961,522.725,830.961" fill="#6E40C9" style="stroke:#6E40C9;stroke-width:1;stroke-linejoin:miter;stroke-miterlimit:10;"/><line x1="208.857" y1="830.961" x2="524.725" y2="830.961" style="stroke:#6E40C9;stroke-width:1;"/><text x="215.857" y="825.895" fill="#000" font-size="13" textLength="157.149" font-family="Helvetica">POST /play-tickets (JWT)</text><polygon points="219.857,856.094,209.857,860.094,219.857,864.094,215.857,860.094" fill="#6E40C9" style="stroke:#6E40C9;stroke-width:1;stroke-linejoin:miter;stroke-miterlimit:10;"/><line x1="213.857" y1="860.094" x2="529.725" y2="860.094" style="stroke:#6E40C9;stroke-width:1;stroke-dasharray:2,2;"/><text x="225.857" y="855.028" fill="#000" font-size="13" textLength="168.867" font-family="Helvetica">одноразовый ticket (TTL)</text><polygon points="892.36,885.227,902.36,889.227,892.36,893.227,896.36,889.227" fill="#6E40C9" style="stroke:#6E40C9;stroke-width:1;stroke-linejoin:miter;stroke-miterlimit:10;"/><line x1="208.857" y1="889.227" x2="898.36" y2="889.227" style="stroke:#6E40C9;stroke-width:1;"/><text x="215.857" y="884.161" fill="#000" font-size="13" textLength="237.542" font-family="Helvetica">запуск Minecraft → коннект (ticket)</text><polygon points="541.725,929.492,531.725,933.492,541.725,937.492,537.725,933.492" fill="#6E40C9" style="stroke:#6E40C9;stroke-width:1;stroke-linejoin:miter;stroke-miterlimit:10;"/><line x1="535.725" y1="933.492" x2="903.36" y2="933.492" style="stroke:#6E40C9;stroke-width:1;"/><text x="547.725" y="913.293" fill="#000" font-size="13" textLength="77.53" font-family="Helvetica">verify ticket</text><text x="547.725" y="928.426" fill="#000" font-size="13" textLength="144.13" font-family="Helvetica">(X-Game-Auth-Secret)</text><polygon points="892.36,958.625,902.36,962.625,892.36,966.625,896.36,962.625" fill="#6E40C9" style="stroke:#6E40C9;stroke-width:1;stroke-linejoin:miter;stroke-miterlimit:10;"/><line x1="530.725" y1="962.625" x2="898.36" y2="962.625" style="stroke:#6E40C9;stroke-width:1;stroke-dasharray:2,2;"/><text x="537.725" y="957.559" fill="#000" font-size="13" textLength="185.466" font-family="Helvetica">профиль игрока (server_id)</text><polygon points="45.868,987.758,35.868,991.758,45.868,995.758,41.868,991.758" fill="#6E40C9" style="stroke:#6E40C9;stroke-width:1;stroke-linejoin:miter;stroke-miterlimit:10;"/><line x1="39.868" y1="991.758" x2="903.36" y2="991.758" style="stroke:#6E40C9;stroke-width:1;stroke-dasharray:2,2;"/><text x="51.868" y="986.692" fill="#000" font-size="13" textLength="74.731" font-family="Helvetica">вход в мир</text><rect x="10" y="1020.324" width="939.958" height="3" fill="#FFF" style="stroke:#FFF;stroke-width:1;"/><line x1="10" y1="1020.324" x2="949.958" y2="1020.324" style="stroke:#000;stroke-width:0.5;"/><line x1="10" y1="1023.324" x2="949.958" y2="1023.324" style="stroke:#000;stroke-width:0.5;"/><rect x="446.487" y="1009.758" width="66.984" height="23.133" fill="#FFF" style="stroke:#000;stroke-width:1;"/><text x="452.487" y="1025.825" fill="#000" font-size="13" textLength="48.458" font-weight="700" font-family="Helvetica">В игре</text><polygon points="541.725,1060.023,531.725,1064.023,541.725,1068.023,537.725,1064.023" fill="#6E40C9" style="stroke:#6E40C9;stroke-width:1;stroke-linejoin:miter;stroke-miterlimit:10;"/><line x1="535.725" y1="1064.023" x2="903.36" y2="1064.023" style="stroke:#6E40C9;stroke-width:1;"/><text x="547.725" y="1058.958" fill="#000" font-size="13" textLength="349.635" font-family="Helvetica">синк статистики / экономики (по секрету сервера)</text><polygon points="892.36,1089.156,902.36,1093.156,892.36,1097.156,896.36,1093.156" fill="#6E40C9" style="stroke:#6E40C9;stroke-width:1;stroke-linejoin:miter;stroke-miterlimit:10;"/><line x1="34.868" y1="1093.156" x2="898.36" y2="1093.156" style="stroke:#6E40C9;stroke-width:1;"/><text x="41.868" y="1088.09" fill="#000" font-size="13" textLength="113.788" font-family="Helvetica">открыть WebGUI</text><polygon points="45.868,1118.289,35.868,1122.289,45.868,1126.289,41.868,1122.289" fill="#6E40C9" style="stroke:#6E40C9;stroke-width:1;stroke-linejoin:miter;stroke-miterlimit:10;"/><line x1="39.868" y1="1122.289" x2="903.36" y2="1122.289" style="stroke:#6E40C9;stroke-width:1;"/><text x="51.868" y="1117.223" fill="#000" font-size="13" textLength="258.121" font-family="Helvetica">webgui:open_web (url + webgui_token)</text><polygon points="518.725,1147.422,528.725,1151.422,518.725,1155.422,522.725,1151.422" fill="#6E40C9" style="stroke:#6E40C9;stroke-width:1;stroke-linejoin:miter;stroke-miterlimit:10;"/><line x1="34.868" y1="1151.422" x2="524.725" y2="1151.422" style="stroke:#6E40C9;stroke-width:1;"/><text x="41.868" y="1146.356" fill="#000" font-size="13" textLength="173.259" font-family="Helvetica">/game-ui/* (webgui_token)</text><?plantuml-src ZLNTRXj55BxVfpYKcpNO65Kaf5KJbBXnKcJI23kKYqZHP3rUBzdicDrrhO2Gx8GMf0GLLLmWyGZScBHH7ITrfJx1x2lqIVZEx3fP1uImvBKzyvsVxtpd7ByNj-M-f8ullC2AzhoW8qAnJxl2sND3rGsQ5UMhaDwlcbSE4RL5K_MymAMMy2EPksdAbkZwSLK5yOQ0xtNfFvQnvuWSPZaCLIzpFR_woSULEtdNyjkk31nPyrfu1t95XKqPPkY5EtEVhixbq7Z2kTSHGVp_WV-WDrzTg2vRiHVxakxjBdsblEQNc_Ik_nlfF_H4lz0Z_Rf8oO0_aoT97sUlyVsL7YPFzIXvHdf4-ZHvWlENXAiXOy-0E-NdlVBkacK99qOi_Rj-OUp792BQid9fqIq46oP72F4Jcsq7TaM5Sbr5SU4MeskpQAOXW-PsK1LHlBpvm61MPZ6L-nlRA82pLzuN0GeQnP61LMu4dcPrYlVvTf3Ftk3hbhMuIFfNa3pK4rpboIykMbjKMg8QtILzCQqNbKc_0ORTNYGdLeqXAu1iFgmtg2owSRliAnUDjqAbpFhpHmqIZYEZY3waKBP26RMjGCMIGizjnwHQ1fRTa95Yo58aXyaWUROTG0SEY2H7IH-bF4ilqkoV9yVwByv-HXs8nLR_eIrOw35WCpnFsHbR8yB9Z4Eo8x_h5gu9hws2RoJ3npACoj_pvGyvpcteMwIE2l6SYhJJ3VqYX0jLoqDBsXjILLNeoaAHMbB4NR1FtLSozrF3Zxw9L61LhfmZhpSWCJ0Db_m88kT6eLEoEo9k5odolfD5ggylbsxFpSExBzoeOFbATKY_r1DQcBNA51tYvuK-OrrHh0dPwut6PlbsmIAgJIkq8MKpkgzwWQz4ypEoso9gbnpXj2KwWyFY8ujxPJUbCur9DWewGAWHJnN4vAPYRIuHd5MwO7Ln2Fx2bKrsT4qUOiCBz3ccTq-V8_UinLafrZEBRc68_gN9XDyJ1z53YDOBFLpoDa1UQ9za06soYEcnQHvK6EMPe2iHuUVa22171ItFDJbdKu-mPgs03I6plfcM8TXScXxTzCL12NEv9sEpKz25IFi80SOpxVVspsnaJVkzlRWvNPrhFn7P6Aj2hkDuIx5iHiXNN1BqyZbbOUr6evOrRvt1-HI-m3vsGj6AquAEpQo0YXv36ZjrKB3gqrnGEwzra3d6Elkwj8Q_XD8oHhzKXoC6fscPI4OVb9XbFPcjcPsEpuxNDEvXiPKEORPoqPcNFFBPe4-DpxXeL-bSoOIcEUJAyMJm4o56QABabupHX9sPGpjLT60eziqwERgnFGgfAeO1BnxWacEp51x9tRMj1sbyJhSdTzskTrTrPB23xsHZoh7dqkETM66RPyuusxBBjUfwvG_8de7y3G00?></g></svg>